<svg xmlns="http://www.w3.org/2000/svg" viewBox="0 0 700 500">


<rect width="700" height="500" fill="#F7F6F2"/>
<rect x="0" y="0" width="700" height="230" fill="#0E2A47"/>
<rect x="60" y="60" width="220" height="130" rx="6" fill="#163B5C"/>
<rect x="80" y="80" width="60" height="8" fill="#F0C866"/>
<rect x="80" y="100" width="150" height="6" fill="#FFFFFF" opacity="0.6"/>
<rect x="80" y="118" width="120" height="6" fill="#FFFFFF" opacity="0.6"/>
<rect x="80" y="136" width="140" height="6" fill="#FFFFFF" opacity="0.6"/>
<g><rect x="90" y="260" width="130" height="14" fill="#1F4A73"/><rect x="100" y="274" width="18" height="60" fill="#1F4A73"/><rect x="182" y="274" width="18" height="60" fill="#1F4A73"/></g><g><rect x="250" y="260" width="130" height="14" fill="#1F4A73"/><rect x="260" y="274" width="18" height="60" fill="#1F4A73"/><rect x="342" y="274" width="18" height="60" fill="#1F4A73"/></g><g><rect x="410" y="260" width="130" height="14" fill="#1F4A73"/><rect x="420" y="274" width="18" height="60" fill="#1F4A73"/><rect x="502" y="274" width="18" height="60" fill="#1F4A73"/></g><g><rect x="570" y="260" width="130" height="14" fill="#1F4A73"/><rect x="580" y="274" width="18" height="60" fill="#1F4A73"/><rect x="662" y="274" width="18" height="60" fill="#1F4A73"/></g>
<circle cx="600" cy="80" r="30" fill="#D9A33B" opacity="0.5"/>

</svg>